<svg version="1.1" xmlns="http://www.w3.org/2000/svg" xmlns:xlink="http://www.w3.org/1999/xlink" width="24px" height="24px" viewBox="0,0,256,256"><g fill="#4b8040" fill-rule="nonzero" stroke="none" stroke-width="1" stroke-linecap="butt" stroke-linejoin="miter" stroke-miterlimit="10" stroke-dasharray="" stroke-dashoffset="0" font-family="none" font-weight="none" font-size="none" text-anchor="none" style="mix-blend-mode: normal"><g transform="scale(10.66667,10.66667)"><g id="info" font-family="Inter, apple-system, BlinkMacSystemFont, &quot;Helvetica Neue&quot;, &quot;Segoe UI&quot;, &quot;Fira Sans&quot;, Roboto, Oxygen, Ubuntu, &quot;Droid Sans&quot;, Arial, sans-serif" font-weight="400" font-size="16" text-anchor="start"></g><g id="icons"><path d="M12,0c-6.6,0 -12,5.4 -12,12c0,6.6 5.4,12 12,12c6.6,0 12,-5.4 12,-12c0,-6.6 -5.4,-12 -12,-12zM12,4c2.2,0 4,2.2 4,5c0,2.8 -1.8,5 -4,5c-2.2,0 -4,-2.2 -4,-5c0,-2.8 1.8,-5 4,-5zM18.6,19.5c-1.7,1.5 -4.1,2.5 -6.6,2.5c-2.5,0 -4.9,-1 -6.6,-2.5c-0.4,-0.4 -0.5,-1 -0.1,-1.4c1.1,-1.3 2.6,-2.2 4.2,-2.7c0.8,0.4 1.6,0.6 2.5,0.6c0.9,0 1.7,-0.2 2.5,-0.6c1.7,0.5 3.1,1.4 4.2,2.7c0.4,0.4 0.4,1 -0.1,1.4z" id="user2"></path></g></g></g></svg>